<svg width="65" height="65" viewBox="0 0 65 65" fill="none" xmlns="http://www.w3.org/2000/svg">
<g clip-path="url(#clip0)">
<path d="M65 5.86108V2.03755H17.2059C9.36981 1.99727 4.84556 11.1605 9.56405 17.3317H0V21.1552H3.82353V32.6258H0V36.4493H9.55793C4.83778 42.655 9.39148 51.7824 17.2059 51.7434H34.4118V62.9626L42.0588 57.8645L49.7059 62.9626V51.7434H65V47.9199H61.1765V36.4493H65V32.6258H55.436C57.9917 29.2291 57.9945 24.5556 55.436 21.1552H65V17.3317H61.1765V5.86108H65ZM45.8824 55.8184L42.0588 53.2694L38.2353 55.8184V44.0964H45.8824V55.8184ZM57.3529 47.9199H49.7059V40.2728H34.4118V47.9199H17.2059C9.6033 47.614 9.59604 36.7498 17.2059 36.4493H57.3529V47.9199ZM53.5294 26.8905C53.5294 30.0531 50.9567 32.6258 47.7941 32.6258C44.0241 32.6258 12.773 32.6258 7.64706 32.6258V21.1552H47.7941C50.9567 21.1552 53.5294 23.7279 53.5294 26.8905ZM57.3529 17.3317C52.2373 17.3317 20.9696 17.3317 17.2059 17.3317C9.5954 17.0158 9.60126 6.1741 17.2059 5.86108H57.3529V17.3317Z" fill="black"/>
</g>
<defs>
<clipPath id="clip0">
<rect width="65" height="65" fill="white"/>
</clipPath>
</defs>
</svg>
