<svg width="1440" height="355" viewBox="0 0 1440 355" fill="none" xmlns="http://www.w3.org/2000/svg">
<path d="M0 213L24 218.88C48 225.203 96 236.297 144 230.75C192 225.203 240 200.797 288 195.25C336 189.703 384 200.797 432 189.37C480 177.5 528 142 576 136.12C624 129.797 672 154.203 720 159.75C768 165.297 816 154.203 864 165.63C912 177.5 960 213 1008 236.63C1056 260.703 1104 271.797 1152 266.25C1200 260.703 1248 236.297 1296 242.62C1344 248.5 1392 284 1416 301.75L1440 319.5V0H1416C1392 0 1344 0 1296 0C1248 0 1200 0 1152 0C1104 0 1056 0 1008 0C960 0 912 0 864 0C816 0 768 0 720 0C672 0 624 0 576 0C528 0 480 0 432 0C384 0 336 0 288 0C240 0 192 0 144 0C96 0 48 0 24 0H0V213Z" fill="#F3F4F5"/>
</svg>
